<?xml version="1.0" encoding="UTF-8" standalone="no"?>
<svg
   xmlns:dc="http://purl.org/dc/elements/1.1/"
   xmlns:cc="http://creativecommons.org/ns#"
   xmlns:rdf="http://www.w3.org/1999/02/22-rdf-syntax-ns#"
   xmlns:svg="http://www.w3.org/2000/svg"
   xmlns="http://www.w3.org/2000/svg"
   xmlns:sodipodi="http://sodipodi.sourceforge.net/DTD/sodipodi-0.dtd"
   xmlns:inkscape="http://www.inkscape.org/namespaces/inkscape"
   inkscape:version="1.0 (4035a4fb49, 2020-05-01)"
   sodipodi:docname="safari-pinned-tab.svg"
   id="svg8"
   preserveAspectRatio="xMidYMid meet"
   viewBox="0 0 237.000000 237.000000"
   height="237.000000pt"
   width="237.000000pt"
   version="1.0">
  <defs
     id="defs12" />
  <sodipodi:namedview
     inkscape:current-layer="svg8"
     inkscape:window-maximized="0"
     inkscape:window-y="32"
     inkscape:window-x="0"
     inkscape:cy="135.08702"
     inkscape:cx="38.825768"
     inkscape:zoom="1.9176915"
     inkscape:snap-page="true"
     inkscape:snap-text-baseline="true"
     inkscape:snap-center="true"
     inkscape:snap-object-midpoints="true"
     inkscape:snap-midpoints="true"
     inkscape:snap-smooth-nodes="true"
     inkscape:snap-intersection-paths="true"
     inkscape:object-paths="true"
     inkscape:snap-bbox-midpoints="true"
     inkscape:snap-bbox-edge-midpoints="true"
     inkscape:bbox-nodes="true"
     inkscape:bbox-paths="true"
     inkscape:snap-bbox="true"
     showgrid="false"
     id="namedview10"
     inkscape:window-height="1048"
     inkscape:window-width="1920"
     inkscape:pageshadow="2"
     inkscape:pageopacity="0"
     guidetolerance="10"
     gridtolerance="10"
     objecttolerance="10"
     borderopacity="1"
     bordercolor="#666666"
     pagecolor="#ffffff" />
  <metadata
     id="metadata2">
Created by potrace 1.11, written by Peter Selinger 2001-2013
<rdf:RDF>
  <cc:Work
     rdf:about="">
    <dc:format>image/svg+xml</dc:format>
    <dc:type
       rdf:resource="http://purl.org/dc/dcmitype/StillImage" />
  </cc:Work>
</rdf:RDF>
</metadata>
  <rect
     y="0"
     x="0"
     height="237"
     width="237"
     id="rect855"
     style="fill:#000000;fill-opacity:1;stroke:none;stroke-width:22.2945;stroke-linecap:round;stroke-linejoin:round;stroke-miterlimit:4;stroke-dasharray:none;stroke-dashoffset:0;stroke-opacity:1;paint-order:stroke markers fill" />
  <g
     style="fill:#ffffff;stroke-width:0.802719"
     transform="matrix(10.511154,0,0,10.511154,33.347314,29.897287)"
     id="g3087">
    <path
       inkscape:connector-curvature="0"
       style="opacity:1;fill:#ffffff;fill-opacity:1;stroke:none;stroke-width:3.64068;stroke-linecap:round;stroke-linejoin:round;stroke-miterlimit:4;stroke-dasharray:none;stroke-dashoffset:0;stroke-opacity:1"
       d="M 6.03125,1.375 A 4.28125,4.28125 0 0 0 1.75,5.65625 4.28125,4.28125 0 0 0 6.03125,9.9375 H 10.3125 V 5.65625 A 4.28125,4.28125 0 0 0 6.03125,1.375 Z m 0,2.140625 A 2.1405001,2.1405001 0 0 1 8.171875,5.65625 2.1405001,2.1405001 0 0 1 6.03125,7.796875 2.1405001,2.1405001 0 0 1 3.890625,5.65625 2.1405001,2.1405001 0 0 1 6.03125,3.515625 Z"
       id="path3075" />
    <path
       id="path3082"
       d="M 12.453,14.2185 A 2.1405,2.1405 0 0 0 14.5935,12.078 2.1405,2.1405 0 0 0 12.453,9.9375 h -2.1405 v 2.1405 a 2.1405,2.1405 0 0 0 2.1405,2.1405 z"
       style="opacity:1;fill:#ffffff;fill-opacity:1;stroke:none;stroke-width:3.64068;stroke-linecap:round;stroke-linejoin:round;stroke-miterlimit:4;stroke-dasharray:none;stroke-dashoffset:0;stroke-opacity:1"
       inkscape:connector-curvature="0" />
  </g>
</svg>
